<svg xmlns="http://www.w3.org/2000/svg" width="210" height="700"><script/><rect id="backgroundrect" width="10%" height="58%" x="10" y="83" fill="none" stroke="none"/><g class="currentLayer"><g id="svg_1" class="r1 middle"><text id="svg_2" x="38.258" y="627.472" fill="#b2b2b2" font-family="Helvetica, Arial, sans-serif" font-size="10" text-anchor="start" style="white-space:pre">1</text><text id="svg_3" x="54.258" y="612.472" fill="#b2b2b2" font-family="Helvetica, Arial, sans-serif" font-size="10" text-anchor="start" style="white-space:pre">2</text><text id="svg_4" x="70.258" y="627.472" fill="#b2b2b2" font-family="Helvetica, Arial, sans-serif" font-size="10" text-anchor="start" style="white-space:pre">3</text><text id="svg_5" x="86.258" y="612.472" fill="#b2b2b2" font-family="Helvetica, Arial, sans-serif" font-size="10" text-anchor="start" style="white-space:pre">4</text><text id="svg_6" x="102.258" y="627.472" fill="#b2b2b2" font-family="Helvetica, Arial, sans-serif" font-size="10" text-anchor="start" style="white-space:pre">5</text><text id="svg_7" x="118.258" y="612.472" fill="#b2b2b2" font-family="Helvetica, Arial, sans-serif" font-size="10" text-anchor="start" style="white-space:pre">6</text><g id="svg_8" class="r1-middle posts"><rect id="c2r1p142sporgbr" width="16" height="20" x="33.258" y="597.472" fill="#e5e5e5" stroke="#7f7f7f"/><rect id="c2r1p242sporgbr" width="16" height="20" x="49.258" y="582.472" fill="#e5e5e5" stroke="#7f7f7f"/><rect id="c2r1p342sporgbr" width="16" height="20" x="65.258" y="597.472" fill="#e5e5e5" stroke="#7f7f7f"/><rect id="c2r1p442sporgbr" width="16" height="20" x="81.258" y="582.472" fill="#e5e5e5" stroke="#7f7f7f"/><rect id="c2r1p542sporgbr" width="16" height="20" x="97.258" y="597.472" fill="#e5e5e5" stroke="#7f7f7f"/><rect id="c2r1p642sporgbr" width="16" height="20" x="113.258" y="582.472" fill="#e5e5e5" stroke="#7f7f7f"/><image id="c2r1p142sporgbr" width="16" height="20" x="33.258" y="597.472" preserveAspectRatio="xMidYMid slice"/><image id="c2r1p242sporgbr" width="16" height="20" x="49.258" y="582.472" preserveAspectRatio="xMidYMid slice"/><image id="c2r1p342sporgbr" width="16" height="20" x="65.258" y="597.472" preserveAspectRatio="xMidYMid slice"/><image id="c2r1p442sporgbr" width="16" height="20" x="81.258" y="582.472" preserveAspectRatio="xMidYMid slice"/><image id="c2r1p542sporgbr" width="16" height="20" x="97.258" y="597.472" preserveAspectRatio="xMidYMid slice"/><image id="c2r1p642sporgbr" width="16" height="20" x="113.258" y="582.472" preserveAspectRatio="xMidYMid slice"/></g></g><g id="svg_9" class="r2 middle"><text id="svg_8" x="38.258" y="582.472" fill="#b2b2b2" font-family="Helvetica, Arial, sans-serif" font-size="10" style="white-space:pre">1</text><text id="svg_9" x="54.258" y="567.472" fill="#b2b2b2" font-family="Helvetica, Arial, sans-serif" font-size="10" style="white-space:pre">2</text><text id="svg_10" x="70.258" y="582.472" fill="#b2b2b2" font-family="Helvetica, Arial, sans-serif" font-size="10" style="white-space:pre">3</text><text id="svg_11" x="86.258" y="567.472" fill="#b2b2b2" font-family="Helvetica, Arial, sans-serif" font-size="10" style="white-space:pre">4</text><text id="svg_12" x="102.258" y="582.472" fill="#b2b2b2" font-family="Helvetica, Arial, sans-serif" font-size="10" style="white-space:pre">5</text><text id="svg_13" x="118.258" y="567.472" fill="#b2b2b2" font-family="Helvetica, Arial, sans-serif" font-size="10" style="white-space:pre">6</text><g id="svg_14" class="r2-middle posts"><rect id="c2r2p142sporgbr" width="16" height="20" x="33.258" y="552.472" fill="#e5e5e5" stroke="#7f7f7f"/><rect id="c2r2p242sporgbr" width="16" height="20" x="49.258" y="537.472" fill="#e5e5e5" stroke="#7f7f7f"/><rect id="c2r2p342sporgbr" width="16" height="20" x="65.258" y="552.472" fill="#e5e5e5" stroke="#7f7f7f"/><rect id="c2r2p442sporgbr" width="16" height="20" x="81.258" y="537.472" fill="#e5e5e5" stroke="#7f7f7f"/><rect id="c2r2p542sporgbr" width="16" height="20" x="97.258" y="552.472" fill="#e5e5e5" stroke="#7f7f7f"/><rect id="c2r2p642sporgbr" width="16" height="20" x="113.258" y="537.472" fill="#e5e5e5" stroke="#7f7f7f"/><image id="c2r2p142sporgbr" width="16" height="20" x="33.258" y="552.472" preserveAspectRatio="xMidYMid slice"/><image id="c2r2p242sporgbr" width="16" height="20" x="49.258" y="537.472" preserveAspectRatio="xMidYMid slice"/><image id="c2r2p342sporgbr" width="16" height="20" x="65.258" y="552.472" preserveAspectRatio="xMidYMid slice"/><image id="c2r2p442sporgbr" width="16" height="20" x="81.258" y="537.472" preserveAspectRatio="xMidYMid slice"/><image id="c2r2p542sporgbr" width="16" height="20" x="97.258" y="552.472" preserveAspectRatio="xMidYMid slice"/><image id="c2r2p642sporgbr" width="16" height="20" x="113.258" y="537.472" preserveAspectRatio="xMidYMid slice"/></g></g><g id="svg_15" class="r3 middle"><text id="svg_16" x="38.258" y="537.472" fill="#b2b2b2" font-family="Helvetica, Arial, sans-serif" font-size="10" style="white-space:pre">1</text><text id="svg_17" x="54.258" y="522.472" fill="#b2b2b2" font-family="Helvetica, Arial, sans-serif" font-size="10" style="white-space:pre">2</text><text id="svg_18" x="70.258" y="537.472" fill="#b2b2b2" font-family="Helvetica, Arial, sans-serif" font-size="10" style="white-space:pre">3</text><text id="svg_19" x="86.258" y="522.472" fill="#b2b2b2" font-family="Helvetica, Arial, sans-serif" font-size="10" style="white-space:pre">4</text><text id="svg_20" x="102.258" y="537.472" fill="#b2b2b2" font-family="Helvetica, Arial, sans-serif" font-size="10" style="white-space:pre">5</text><text id="svg_21" x="118.258" y="522.472" fill="#b2b2b2" font-family="Helvetica, Arial, sans-serif" font-size="10" style="white-space:pre">6</text><g id="svg_22" class="r3-middle posts"><rect id="c2r3p142sporgbr" width="16" height="20" x="33.258" y="507.472" fill="#e5e5e5" stroke="#7f7f7f"/><rect id="c2r3p242sporgbr" width="16" height="20" x="49.258" y="492.472" fill="#e5e5e5" stroke="#7f7f7f"/><rect id="c2r3p342sporgbr" width="16" height="20" x="65.258" y="507.472" fill="#e5e5e5" stroke="#7f7f7f"/><rect id="c2r3p442sporgbr" width="16" height="20" x="81.258" y="492.472" fill="#e5e5e5" stroke="#7f7f7f"/><rect id="c2r3p52sporgbr" width="16" height="20" x="97.258" y="507.472" fill="#e5e5e5" stroke="#7f7f7f"/><rect id="c2r3p642sporgbr" width="16" height="20" x="113.258" y="492.472" fill="#e5e5e5" stroke="#7f7f7f"/><image id="c2r3p142sporgbr" width="16" height="20" x="33.258" y="507.472" preserveAspectRatio="xMidYMid slice"/><image id="c2r3p242sporgbr" width="16" height="20" x="49.258" y="492.472" preserveAspectRatio="xMidYMid slice"/><image id="c2r3p342sporgbr" width="16" height="20" x="65.258" y="507.472" preserveAspectRatio="xMidYMid slice"/><image id="c2r3p442sporgbr" width="16" height="20" x="81.258" y="492.472" preserveAspectRatio="xMidYMid slice"/><image id="c2r3p542sporgbr" width="16" height="20" x="97.258" y="507.472" preserveAspectRatio="xMidYMid slice"/><image id="c2r3p642sporgbr" width="16" height="20" x="113.258" y="492.472" preserveAspectRatio="xMidYMid slice"/></g></g><g id="svg_23" class="r4 middle"><text id="svg_24" x="38.258" y="492.472" fill="#b2b2b2" font-family="Helvetica, Arial, sans-serif" font-size="10" style="white-space:pre">1</text><text id="svg_25" x="54.258" y="477.472" fill="#b2b2b2" font-family="Helvetica, Arial, sans-serif" font-size="10" style="white-space:pre">2</text><text id="svg_26" x="70.258" y="492.472" fill="#b2b2b2" font-family="Helvetica, Arial, sans-serif" font-size="10" style="white-space:pre">3</text><text id="svg_27" x="86.258" y="477.472" fill="#b2b2b2" font-family="Helvetica, Arial, sans-serif" font-size="10" style="white-space:pre">4</text><text id="svg_28" x="102.258" y="492.472" fill="#b2b2b2" font-family="Helvetica, Arial, sans-serif" font-size="10" style="white-space:pre">5</text><text id="svg_29" x="118.258" y="477.472" fill="#b2b2b2" font-family="Helvetica, Arial, sans-serif" font-size="10" style="white-space:pre">6</text><g id="svg_30" class="r4-middle posts"><rect id="c2r4p142sporgbr" width="16" height="20" x="33.258" y="462.472" fill="#e5e5e5" stroke="#7f7f7f"/><rect id="c2r4p242sporgbr" width="16" height="20" x="49.258" y="447.472" fill="#e5e5e5" stroke="#7f7f7f"/><rect id="c2r4p342sporgbr" width="16" height="20" x="65.258" y="462.472" fill="#e5e5e5" stroke="#7f7f7f"/><rect id="c2r4p442sporgbr" width="16" height="20" x="81.258" y="447.472" fill="#e5e5e5" stroke="#7f7f7f"/><rect id="c2r4p542sporgbr" width="16" height="20" x="97.258" y="462.472" fill="#e5e5e5" stroke="#7f7f7f"/><rect id="c2r4p642sporgbr" width="16" height="20" x="113.258" y="447.472" fill="#e5e5e5" stroke="#7f7f7f"/><image id="c2r4p142sporgbr" width="16" height="20" x="33.258" y="462.472" preserveAspectRatio="xMidYMid slice"/><image id="c2r4p242sporgbr" width="16" height="20" x="49.258" y="447.472" preserveAspectRatio="xMidYMid slice"/><image id="c2r4p342sporgbr" width="16" height="20" x="65.258" y="462.472" preserveAspectRatio="xMidYMid slice"/><image id="c2r4p442sporgbr" width="16" height="20" x="81.258" y="447.472" preserveAspectRatio="xMidYMid slice"/><image id="c2r4p542sporgbr" width="16" height="20" x="97.258" y="462.472" preserveAspectRatio="xMidYMid slice"/><image id="c2r4p642sporgbr" width="16" height="20" x="113.258" y="447.472" preserveAspectRatio="xMidYMid slice"/></g></g><g id="svg_31" class="r5 middle"><text id="svg_32" x="38.258" y="447.472" fill="#b2b2b2" font-family="Helvetica, Arial, sans-serif" font-size="10" style="white-space:pre">1</text><text id="svg_33" x="54.258" y="432.472" fill="#b2b2b2" font-family="Helvetica, Arial, sans-serif" font-size="10" style="white-space:pre">2</text><text id="svg_34" x="70.258" y="447.472" fill="#b2b2b2" font-family="Helvetica, Arial, sans-serif" font-size="10" style="white-space:pre">3</text><text id="svg_35" x="86.258" y="432.472" fill="#b2b2b2" font-family="Helvetica, Arial, sans-serif" font-size="10" style="white-space:pre">4</text><text id="svg_36" x="102.258" y="447.472" fill="#b2b2b2" font-family="Helvetica, Arial, sans-serif" font-size="10" style="white-space:pre">5</text><text id="svg_37" x="118.258" y="432.472" fill="#b2b2b2" font-family="Helvetica, Arial, sans-serif" font-size="10" style="white-space:pre">6</text><g id="svg_38" class="r5-middle posts"><rect id="c2r5p142sporgbr" width="16" height="20" x="33.258" y="417.472" fill="#e5e5e5" stroke="#7f7f7f"/><rect id="c2r5p242sporgbr" width="16" height="20" x="49.258" y="402.472" fill="#e5e5e5" stroke="#7f7f7f"/><rect id="c2r5p342sporgbr" width="16" height="20" x="65.258" y="417.472" fill="#e5e5e5" stroke="#7f7f7f"/><rect id="c2r5p442sporgbr" width="16" height="20" x="81.258" y="402.472" fill="#e5e5e5" stroke="#7f7f7f"/><rect id="c2r5p542sporgbr" width="16" height="20" x="97.258" y="417.472" fill="#e5e5e5" stroke="#7f7f7f"/><rect id="c2r5p642sporgbr" width="16" height="20" x="113.258" y="402.472" fill="#e5e5e5" stroke="#7f7f7f"/><image id="c2r5p142sporgbr" width="16" height="20" x="33.258" y="417.472" preserveAspectRatio="xMidYMid slice"/><image id="c2r5p242sporgbr" width="16" height="20" x="49.258" y="402.472" preserveAspectRatio="xMidYMid slice"/><image id="c2r5p342sporgbr" width="16" height="20" x="65.258" y="417.472" preserveAspectRatio="xMidYMid slice"/><image id="c2r5p442sporgbr" width="16" height="20" x="81.258" y="402.472" preserveAspectRatio="xMidYMid slice"/><image id="c2r5p542sporgbr" width="16" height="20" x="97.258" y="417.472" preserveAspectRatio="xMidYMid slice"/><image id="c2r5p642sporgbr" width="16" height="20" x="113.258" y="402.472" preserveAspectRatio="xMidYMid slice"/></g></g><g id="svg_39" class="r6 middle"><text id="svg_40" x="38.258" y="402.472" fill="#b2b2b2" font-family="Helvetica, Arial, sans-serif" font-size="10" style="white-space:pre">1</text><text id="svg_41" x="54.258" y="387.472" fill="#b2b2b2" font-family="Helvetica, Arial, sans-serif" font-size="10" style="white-space:pre">2</text><text id="svg_42" x="70.258" y="402.472" fill="#b2b2b2" font-family="Helvetica, Arial, sans-serif" font-size="10" style="white-space:pre">3</text><text id="svg_43" x="86.258" y="387.472" fill="#b2b2b2" font-family="Helvetica, Arial, sans-serif" font-size="10" style="white-space:pre">4</text><text id="svg_44" x="102.258" y="402.472" fill="#b2b2b2" font-family="Helvetica, Arial, sans-serif" font-size="10" style="white-space:pre">5</text><text id="svg_45" x="118.258" y="387.472" fill="#b2b2b2" font-family="Helvetica, Arial, sans-serif" font-size="10" style="white-space:pre">6</text><g id="svg_46" class="r6-middle posts"><rect id="c2r6p142sporgbr" width="16" height="20" x="33.258" y="372.472" fill="#e5e5e5" stroke="#7f7f7f"/><rect id="c2r6p242sporgbr" width="16" height="20" x="49.258" y="357.472" fill="#e5e5e5" stroke="#7f7f7f"/><rect id="c2r6p342sporgbr" width="16" height="20" x="65.258" y="372.472" fill="#e5e5e5" stroke="#7f7f7f"/><rect id="c2r6p442sporgbr" width="16" height="20" x="81.258" y="357.472" fill="#e5e5e5" stroke="#7f7f7f"/><rect id="c2r6p542sporgbr" width="16" height="20" x="97.258" y="372.472" fill="#e5e5e5" stroke="#7f7f7f"/><rect id="c2r6p642sporgbr" width="16" height="20" x="113.258" y="357.472" fill="#e5e5e5" stroke="#7f7f7f"/><image id="c2r6p142sporgbr" width="16" height="20" x="33.258" y="372.472" preserveAspectRatio="xMidYMid slice"/><image id="c2r6p242sporgbr" width="16" height="20" x="49.258" y="357.472" preserveAspectRatio="xMidYMid slice"/><image id="c2r6p342sporgbr" width="16" height="20" x="65.258" y="372.472" preserveAspectRatio="xMidYMid slice"/><image id="c2r6p442sporgbr" width="16" height="20" x="81.258" y="357.472" preserveAspectRatio="xMidYMid slice"/><image id="c2r6p542sporgbr" width="16" height="20" x="97.258" y="372.472" preserveAspectRatio="xMidYMid slice"/><image id="c2r6p642sporgbr" width="16" height="20" x="113.258" y="357.472" preserveAspectRatio="xMidYMid slice"/></g></g><g id="svg_47" class="r7 middle"><text id="svg_48" x="38.258" y="357.472" fill="#b2b2b2" font-family="Helvetica, Arial, sans-serif" font-size="10" style="white-space:pre">1</text><text id="svg_49" x="54.258" y="342.472" fill="#b2b2b2" font-family="Helvetica, Arial, sans-serif" font-size="10" style="white-space:pre">2</text><text id="svg_50" x="70.258" y="357.472" fill="#b2b2b2" font-family="Helvetica, Arial, sans-serif" font-size="10" style="white-space:pre">3</text><text id="svg_51" x="86.258" y="342.472" fill="#b2b2b2" font-family="Helvetica, Arial, sans-serif" font-size="10" style="white-space:pre">4</text><text id="svg_52" x="102.258" y="357.472" fill="#b2b2b2" font-family="Helvetica, Arial, sans-serif" font-size="10" style="white-space:pre">5</text><text id="svg_53" x="118.258" y="342.472" fill="#b2b2b2" font-family="Helvetica, Arial, sans-serif" font-size="10" style="white-space:pre">6</text><g id="svg_54" class="r7-middle posts"><rect id="c2r7p142sporgbr" width="16" height="20" x="33.258" y="327.472" fill="#e5e5e5" stroke="#7f7f7f"/><rect id="c2r7p242sporgbr" width="16" height="20" x="49.258" y="312.472" fill="#e5e5e5" stroke="#7f7f7f"/><rect id="c2r7p342sporgbr" width="16" height="20" x="65.258" y="327.472" fill="#e5e5e5" stroke="#7f7f7f"/><rect id="c2r7p442sporgbr" width="16" height="20" x="81.258" y="312.472" fill="#e5e5e5" stroke="#7f7f7f"/><rect id="c2r7p542sporgbr" width="16" height="20" x="97.258" y="327.472" fill="#e5e5e5" stroke="#7f7f7f"/><rect id="c2r7p642sporgbr" width="16" height="20" x="113.258" y="312.472" fill="#e5e5e5" stroke="#7f7f7f"/><image id="c2r7p142sporgbr" width="16" height="20" x="33.258" y="327.472" preserveAspectRatio="xMidYMid slice"/><image id="c2r7p242sporgbr" width="16" height="20" x="49.258" y="312.472" preserveAspectRatio="xMidYMid slice"/><image id="c2r7p342sporgbr" width="16" height="20" x="65.258" y="327.472" preserveAspectRatio="xMidYMid slice"/><image id="c2r7p442sporgbr" width="16" height="20" x="81.258" y="312.472" preserveAspectRatio="xMidYMid slice"/><image id="c2r7p542sporgbr" width="16" height="20" x="97.258" y="327.472" preserveAspectRatio="xMidYMid slice"/><image id="c2r7p642sporgbr" width="16" height="20" x="113.258" y="312.472" preserveAspectRatio="xMidYMid slice"/></g></g><g id="svg_55" class="r8 middle"><text id="svg_56" x="38.258" y="312.472" fill="#b2b2b2" font-family="Helvetica, Arial, sans-serif" font-size="10" style="white-space:pre">1</text><text id="svg_57" x="54.258" y="297.472" fill="#b2b2b2" font-family="Helvetica, Arial, sans-serif" font-size="10" style="white-space:pre">2</text><text id="svg_58" x="70.258" y="312.472" fill="#b2b2b2" font-family="Helvetica, Arial, sans-serif" font-size="10" style="white-space:pre">3</text><text id="svg_59" x="86.258" y="297.472" fill="#b2b2b2" font-family="Helvetica, Arial, sans-serif" font-size="10" style="white-space:pre">4</text><text id="svg_60" x="102.258" y="312.472" fill="#b2b2b2" font-family="Helvetica, Arial, sans-serif" font-size="10" style="white-space:pre">5</text><text id="svg_61" x="118.258" y="297.472" fill="#b2b2b2" font-family="Helvetica, Arial, sans-serif" font-size="10" style="white-space:pre">6</text><g id="svg_62" class="r8-middle posts"><rect id="c2r8p142sporgbr" width="16" height="20" x="33.258" y="282.472" fill="#e5e5e5" stroke="#7f7f7f"/><rect id="c2r8p242sporgbr" width="16" height="20" x="49.258" y="267.472" fill="#e5e5e5" stroke="#7f7f7f"/><rect id="c2r8p342sporgbr" width="16" height="20" x="65.258" y="282.472" fill="#e5e5e5" stroke="#7f7f7f"/><rect id="c2r8p442sporgbr" width="16" height="20" x="81.258" y="267.472" fill="#e5e5e5" stroke="#7f7f7f"/><rect id="c2r8p542sporgbr" width="16" height="20" x="97.258" y="282.472" fill="#e5e5e5" stroke="#7f7f7f"/><rect id="c2r8p642sporgbr" width="16" height="20" x="113.258" y="267.472" fill="#e5e5e5" stroke="#7f7f7f"/><image id="c2r8p142sporgbr" width="16" height="20" x="33.258" y="282.472" preserveAspectRatio="xMidYMid slice"/><image id="c2r8p242sporgbr" width="16" height="20" x="49.258" y="267.472" preserveAspectRatio="xMidYMid slice"/><image id="c2r8p342sporgbr" width="16" height="20" x="65.258" y="282.472" preserveAspectRatio="xMidYMid slice"/><image id="c2r8p442sporgbr" width="16" height="20" x="81.258" y="267.472" preserveAspectRatio="xMidYMid slice"/><image id="c2r8p542sporgbr" width="16" height="20" x="97.258" y="282.472" preserveAspectRatio="xMidYMid slice"/><image id="c2r8p642sporgbr" width="16" height="20" x="113.258" y="267.472" preserveAspectRatio="xMidYMid slice"/></g></g><g id="svg_63" class="r9 middle"><text id="svg_64" x="38.258" y="267.472" fill="#b2b2b2" font-family="Helvetica, Arial, sans-serif" font-size="10" style="white-space:pre">1</text><text id="svg_65" x="54.258" y="252.472" fill="#b2b2b2" font-family="Helvetica, Arial, sans-serif" font-size="10" style="white-space:pre">2</text><text id="svg_66" x="70.258" y="267.472" fill="#b2b2b2" font-family="Helvetica, Arial, sans-serif" font-size="10" style="white-space:pre">3</text><text id="svg_67" x="86.258" y="252.472" fill="#b2b2b2" font-family="Helvetica, Arial, sans-serif" font-size="10" style="white-space:pre">4</text><text id="svg_68" x="102.258" y="267.472" fill="#b2b2b2" font-family="Helvetica, Arial, sans-serif" font-size="10" style="white-space:pre">5</text><text id="svg_69" x="118.258" y="252.472" fill="#b2b2b2" font-family="Helvetica, Arial, sans-serif" font-size="10" style="white-space:pre">6</text><g id="svg_70" class="r9-middle posts"><rect id="c2r9p142sporgbr" width="16" height="20" x="33.258" y="237.472" fill="#e5e5e5" stroke="#7f7f7f"/><rect id="c2r9p242sporgbr" width="16" height="20" x="49.258" y="222.472" fill="#e5e5e5" stroke="#7f7f7f"/><rect id="c2r9p342sporgbr" width="16" height="20" x="65.258" y="237.472" fill="#e5e5e5" stroke="#7f7f7f"/><rect id="c2r9p442sporgbr" width="16" height="20" x="81.258" y="222.472" fill="#e5e5e5" stroke="#7f7f7f"/><rect id="c2r9p542sporgbr" width="16" height="20" x="97.258" y="237.472" fill="#e5e5e5" stroke="#7f7f7f"/><rect id="c2r9p642sporgbr" width="16" height="20" x="113.258" y="222.472" fill="#e5e5e5" stroke="#7f7f7f"/><image id="c2r9p142sporgbr" width="16" height="20" x="33.258" y="237.472" preserveAspectRatio="xMidYMid slice"/><image id="c2r9p242sporgbr" width="16" height="20" x="49.258" y="222.472" preserveAspectRatio="xMidYMid slice"/><image id="c2r9p342sporgbr" width="16" height="20" x="65.258" y="237.472" preserveAspectRatio="xMidYMid slice"/><image id="c2r9p442sporgbr" width="16" height="20" x="81.258" y="222.472" preserveAspectRatio="xMidYMid slice"/><image id="c2r9p542sporgbr" width="16" height="20" x="97.258" y="237.472" preserveAspectRatio="xMidYMid slice"/><image id="c2r9p642sporgbr" width="16" height="20" x="113.258" y="222.472" preserveAspectRatio="xMidYMid slice"/></g></g><g id="svg_71" class="r10 middle"><text id="svg_72" x="38.258" y="222.472" fill="#b2b2b2" font-family="Helvetica, Arial, sans-serif" font-size="10" style="white-space:pre">1</text><text id="svg_74" x="54.258" y="207.472" fill="#b2b2b2" font-family="Helvetica, Arial, sans-serif" font-size="10" style="white-space:pre">2</text><text id="svg_73" x="70.258" y="222.472" fill="#b2b2b2" font-family="Helvetica, Arial, sans-serif" font-size="10" style="white-space:pre">3</text><text id="svg_75" x="86.258" y="207.472" fill="#b2b2b2" font-family="Helvetica, Arial, sans-serif" font-size="10" style="white-space:pre">4</text><text id="svg_76" x="102.258" y="222.472" fill="#b2b2b2" font-family="Helvetica, Arial, sans-serif" font-size="10" style="white-space:pre">5</text><text id="svg_77" x="118.258" y="207.472" fill="#b2b2b2" font-family="Helvetica, Arial, sans-serif" font-size="10" style="white-space:pre">6</text><g id="svg_78" class="r10-middle posts"><rect id="c2r10p142sporgbr" width="16" height="20" x="33.258" y="192.472" fill="#e5e5e5" stroke="#7f7f7f"/><rect id="c2r10p242sporgbr" width="16" height="20" x="49.258" y="177.472" fill="#e5e5e5" stroke="#7f7f7f"/><rect id="c2r10p342sporgbr" width="16" height="20" x="65.258" y="192.472" fill="#e5e5e5" stroke="#7f7f7f"/><rect id="c2r10p442sporgbr" width="16" height="20" x="81.258" y="177.472" fill="#e5e5e5" stroke="#7f7f7f"/><rect id="c2r10p542sporgbr" width="16" height="20" x="97.258" y="192.472" fill="#e5e5e5" stroke="#7f7f7f"/><rect id="c2r10p642sporgbr" width="16" height="20" x="113.258" y="177.472" fill="#e5e5e5" stroke="#7f7f7f"/><image id="c2r10p142sporgbr" width="16" height="20" x="33.258" y="192.472" preserveAspectRatio="xMidYMid slice"/><image id="c2r10p242sporgbr" width="16" height="20" x="49.258" y="177.472" preserveAspectRatio="xMidYMid slice"/><image id="c2r10p342sporgbr" width="16" height="20" x="65.258" y="192.472" preserveAspectRatio="xMidYMid slice"/><image id="c2r10p442sporgbr" width="16" height="20" x="81.258" y="177.472" preserveAspectRatio="xMidYMid slice"/><image id="c2r10p542sporgbr" width="16" height="20" x="97.258" y="192.472" preserveAspectRatio="xMidYMid slice"/><image id="c2r10p642sporgbr" width="16" height="20" x="113.258" y="177.472" preserveAspectRatio="xMidYMid slice"/></g></g><g id="svg_79" class="r11 middle"><text id="svg_80" x="38.258" y="177.472" fill="#b2b2b2" font-family="Helvetica, Arial, sans-serif" font-size="10" style="white-space:pre">1</text><text id="svg_81" x="54.258" y="162.472" fill="#b2b2b2" font-family="Helvetica, Arial, sans-serif" font-size="10" style="white-space:pre">2</text><text id="svg_82" x="70.258" y="177.472" fill="#b2b2b2" font-family="Helvetica, Arial, sans-serif" font-size="10" style="white-space:pre">3</text><text id="svg_83" x="86.258" y="162.472" fill="#b2b2b2" font-family="Helvetica, Arial, sans-serif" font-size="10" style="white-space:pre">4</text><text id="svg_84" x="102.258" y="177.472" fill="#b2b2b2" font-family="Helvetica, Arial, sans-serif" font-size="10" style="white-space:pre">5</text><text id="svg_85" x="118.258" y="162.472" fill="#b2b2b2" font-family="Helvetica, Arial, sans-serif" font-size="10" style="white-space:pre">6</text><g id="svg_86" class="r11-middle posts"><rect id="c2r11p142sporgbr" width="16" height="20" x="33.258" y="147.472" fill="#e5e5e5" stroke="#7f7f7f"/><rect id="c2r11p242sporgbr" width="16" height="20" x="49.258" y="132.472" fill="#e5e5e5" stroke="#7f7f7f"/><rect id="c2r11p342sporgbr" width="16" height="20" x="65.258" y="147.472" fill="#e5e5e5" stroke="#7f7f7f"/><rect id="c2r11p442sporgbr" width="16" height="20" x="81.258" y="132.472" fill="#e5e5e5" stroke="#7f7f7f"/><rect id="c2r11p542sporgbr" width="16" height="20" x="97.258" y="147.472" fill="#e5e5e5" stroke="#7f7f7f"/><rect id="c2r11p642sporgbr" width="16" height="20" x="113.258" y="132.472" fill="#e5e5e5" stroke="#7f7f7f"/><image id="c2r11p142sporgbr" width="16" height="20" x="33.258" y="147.472" preserveAspectRatio="xMidYMid slice"/><image id="c2r11p242sporgbr" width="16" height="20" x="49.258" y="132.472" preserveAspectRatio="xMidYMid slice"/><image id="c2r11p342sporgbr" width="16" height="20" x="65.258" y="147.472" preserveAspectRatio="xMidYMid slice"/><image id="c2r11p442sporgbr" width="16" height="20" x="81.258" y="132.472" preserveAspectRatio="xMidYMid slice"/><image id="c2r11p542sporgbr" width="16" height="20" x="97.258" y="147.472" preserveAspectRatio="xMidYMid slice"/><image id="c2r11p642sporgbr" width="16" height="20" x="113.258" y="132.472" preserveAspectRatio="xMidYMid slice"/></g></g><g id="svg_87" class="r12 middle"><text id="svg_88" x="38.258" y="132.472" fill="#b2b2b2" font-family="Helvetica, Arial, sans-serif" font-size="10" style="white-space:pre">1</text><text id="svg_89" x="54.258" y="117.472" fill="#b2b2b2" font-family="Helvetica, Arial, sans-serif" font-size="10" style="white-space:pre">2</text><text id="svg_90" x="70.258" y="132.472" fill="#b2b2b2" font-family="Helvetica, Arial, sans-serif" font-size="10" style="white-space:pre">3</text><text id="svg_91" x="86.258" y="117.472" fill="#b2b2b2" font-family="Helvetica, Arial, sans-serif" font-size="10" style="white-space:pre">4</text><text id="svg_92" x="102.258" y="132.472" fill="#b2b2b2" font-family="Helvetica, Arial, sans-serif" font-size="10" style="white-space:pre">5</text><text id="svg_93" x="118.258" y="117.472" fill="#b2b2b2" font-family="Helvetica, Arial, sans-serif" font-size="10" style="white-space:pre">6</text><g id="svg_94" class="r12-middle posts"><rect id="c2r12p142sporgbr" width="16" height="20" x="33.258" y="102.472" fill="#e5e5e5" stroke="#7f7f7f"/><rect id="c2r12p242sporgbr" width="16" height="20" x="49.258" y="87.472" fill="#e5e5e5" stroke="#7f7f7f"/><rect id="c2r12p342sporgbr" width="16" height="20" x="65.258" y="102.472" fill="#e5e5e5" stroke="#7f7f7f"/><rect id="c2r12p442sporgbr" width="16" height="20" x="81.258" y="87.472" fill="#e5e5e5" stroke="#7f7f7f"/><rect id="c2r12p542sporgbr" width="16" height="20" x="97.258" y="102.472" fill="#e5e5e5" stroke="#7f7f7f"/><rect id="c2r12p642sporgbr" width="16" height="20" x="113.258" y="87.472" fill="#e5e5e5" stroke="#7f7f7f"/><image id="c2r12p142sporgbr" width="16" height="20" x="33.258" y="102.472" preserveAspectRatio="xMidYMid slice"/><image id="c2r12p242sporgbr" width="16" height="20" x="49.258" y="87.472" preserveAspectRatio="xMidYMid slice"/><image id="c2r12p342sporgbr" width="16" height="20" x="65.258" y="102.472" preserveAspectRatio="xMidYMid slice"/><image id="c2r12p442sporgbr" width="16" height="20" x="81.258" y="87.472" preserveAspectRatio="xMidYMid slice"/><image id="c2r12p542sporgbr" width="16" height="20" x="97.258" y="102.472" preserveAspectRatio="xMidYMid slice"/><image id="c2r12p642sporgbr" width="16" height="20" x="113.258" y="87.472" preserveAspectRatio="xMidYMid slice"/></g></g><g id="svg_95" class="text"><text id="svg_96" x="153.258" y="111.472" fill="#ccc" font-family="Helvetica, Arial, sans-serif" font-size="20" font-weight="bold" style="white-space:pre">R12</text><text id="svg_97" x="153.258" y="156.472" fill="#ccc" font-family="Helvetica, Arial, sans-serif" font-size="20" font-weight="bold" style="white-space:pre">R11</text><text id="svg_98" x="153.258" y="201.472" fill="#ccc" font-family="Helvetica, Arial, sans-serif" font-size="20" font-weight="bold" style="white-space:pre">R10</text><text id="svg_99" x="153.258" y="246.472" fill="#ccc" font-family="Helvetica, Arial, sans-serif" font-size="20" font-weight="bold" style="white-space:pre">R9</text><text id="svg_100" x="153.258" y="291.472" fill="#ccc" font-family="Helvetica, Arial, sans-serif" font-size="20" font-weight="bold" style="white-space:pre">R8</text><text id="svg_101" x="153.258" y="336.472" fill="#ccc" font-family="Helvetica, Arial, sans-serif" font-size="20" font-weight="bold" style="white-space:pre">R7</text><text id="svg_102" x="153.258" y="381.472" fill="#ccc" font-family="Helvetica, Arial, sans-serif" font-size="20" font-weight="bold" style="white-space:pre">R6</text><text id="svg_103" x="153.258" y="426.472" fill="#ccc" font-family="Helvetica, Arial, sans-serif" font-size="20" font-weight="bold" style="white-space:pre">R5</text><text id="svg_104" x="153.258" y="471.472" fill="#ccc" font-family="Helvetica, Arial, sans-serif" font-size="20" font-weight="bold" style="white-space:pre">R4</text><text id="svg_105" x="153.258" y="516.472" fill="#ccc" font-family="Helvetica, Arial, sans-serif" font-size="20" font-weight="bold" style="white-space:pre">R3</text><text id="svg_106" x="153.258" y="561.472" fill="#ccc" font-family="Helvetica, Arial, sans-serif" font-size="20" font-weight="bold" style="white-space:pre">R2</text><text id="svg_107" x="153.258" y="606.472" fill="#ccc" font-family="Helvetica, Arial, sans-serif" font-size="20" font-weight="bold" style="white-space:pre">R1</text></g></g></svg>