<svg xmlns="http://www.w3.org/2000/svg" width="170" height="690"><script/><rect id="backgroundrect" width="8%" height="67%" x="0" y="40" fill="none" stroke="none"/><g class="currentLayer"><g id="svg_6" class="r1 middle"><text id="svg_2" x="30.258" y="640.472" fill="#b2b2b2" font-family="Helvetica, Arial, sans-serif" font-size="10" text-anchor="start" style="white-space:pre">1</text><text id="svg_3" x="46.258" y="625.472" fill="#b2b2b2" font-family="Helvetica, Arial, sans-serif" font-size="10" text-anchor="start" style="white-space:pre">2</text><text id="svg_4" x="62.258" y="640.472" fill="#b2b2b2" font-family="Helvetica, Arial, sans-serif" font-size="10" text-anchor="start" style="white-space:pre">3</text><text id="svg_5" x="78.258" y="625.472" fill="#b2b2b2" font-family="Helvetica, Arial, sans-serif" font-size="10" text-anchor="start" style="white-space:pre">4</text><text id="svg_5" x="94.258" y="640.472" fill="#b2b2b2" font-family="Helvetica, Arial, sans-serif" font-size="10" text-anchor="start" style="white-space:pre">5</text><g id="svg_6" class="r1-middle posts"><rect id="c3r1p142sporgbr" width="16" height="20" x="25.258" y="610.472" fill="#e5e5e5" stroke="#7f7f7f"/><rect id="c3r1p242sporgbr" width="16" height="20" x="41.258" y="595.472" fill="#e5e5e5" stroke="#7f7f7f"/><rect id="c3r1p342sporgbr" width="16" height="20" x="57.258" y="610.472" fill="#e5e5e5" stroke="#7f7f7f"/><rect id="c3r1p442sporgbr" width="16" height="20" x="73.258" y="595.472" fill="#e5e5e5" stroke="#7f7f7f"/><rect id="c3r1p542sporgbr" width="16" height="20" x="89.258" y="610.472" fill="#e5e5e5" stroke="#7f7f7f"/><image id="c3r1p142sporgbr" width="16" height="20" x="33.258" y="437.472" preserveAspectRatio="xMidYMid slice"/><image id="c3r1p242sporgbr" width="16" height="20" x="49.258" y="422.472" preserveAspectRatio="xMidYMid slice"/><image id="c3r1p342sporgbr" width="16" height="20" x="65.258" y="437.472" preserveAspectRatio="xMidYMid slice"/><image id="c3r1p442sporgbr" width="16" height="20" x="81.258" y="422.472" preserveAspectRatio="xMidYMid slice"/><image id="c3r1p542sporgbr" width="16" height="20" x="97.258" y="437.472" preserveAspectRatio="xMidYMid slice"/></g></g><g id="svg_12" class="r2 middle"><text id="svg_8" x="30.258" y="595.472" fill="#b2b2b2" font-family="Helvetica, Arial, sans-serif" font-size="10" style="white-space:pre">1</text><text id="svg_9" x="46.258" y="580.472" fill="#b2b2b2" font-family="Helvetica, Arial, sans-serif" font-size="10" style="white-space:pre">2</text><text id="svg_10" x="62.258" y="595.472" fill="#b2b2b2" font-family="Helvetica, Arial, sans-serif" font-size="10" style="white-space:pre">3</text><text id="svg_11" x="78.258" y="580.472" fill="#b2b2b2" font-family="Helvetica, Arial, sans-serif" font-size="10" style="white-space:pre">4</text><text id="svg_10" x="94.258" y="595.472" fill="#b2b2b2" font-family="Helvetica, Arial, sans-serif" font-size="10" style="white-space:pre">5</text><g id="svg_6" class="r2-middle posts"><rect id="c3r2p142sporgbr" width="16" height="20" x="25.258" y="565.472" fill="#e5e5e5" stroke="#7f7f7f"/><rect id="c3r2p242sporgbr" width="16" height="20" x="41.258" y="550.472" fill="#e5e5e5" stroke="#7f7f7f"/><rect id="c3r2p342sporgbr" width="16" height="20" x="57.258" y="565.472" fill="#e5e5e5" stroke="#7f7f7f"/><rect id="c3r2p442sporgbr" width="16" height="20" x="73.258" y="550.472" fill="#e5e5e5" stroke="#7f7f7f"/><rect id="c3r2p542sporgbr" width="16" height="20" x="89.258" y="565.472" fill="#e5e5e5" stroke="#7f7f7f"/><image id="c3r2p142sporgbr" width="16" height="20" x="33.258" y="392.472" preserveAspectRatio="xMidYMid slice"/><image id="c3r2p242sporgbr" width="16" height="20" x="49.258" y="377.472" preserveAspectRatio="xMidYMid slice"/><image id="c3r2p342sporgbr" width="16" height="20" x="65.258" y="392.472" preserveAspectRatio="xMidYMid slice"/><image id="c3r2p442sporgbr" width="16" height="20" x="81.258" y="377.472" preserveAspectRatio="xMidYMid slice"/><image id="c3r2p542sporgbr" width="16" height="20" x="97.258" y="392.472" preserveAspectRatio="xMidYMid slice"/></g></g><g id="svg_18" class="r3 middle"><text id="svg_14" x="30.258" y="550.472" fill="#b2b2b2" font-family="Helvetica, Arial, sans-serif" font-size="10" style="white-space:pre">1</text><text id="svg_15" x="46.258" y="535.472" fill="#b2b2b2" font-family="Helvetica, Arial, sans-serif" font-size="10" style="white-space:pre">2</text><text id="svg_16" x="62.258" y="550.472" fill="#b2b2b2" font-family="Helvetica, Arial, sans-serif" font-size="10" style="white-space:pre">3</text><text id="svg_17" x="78.258" y="535.472" fill="#b2b2b2" font-family="Helvetica, Arial, sans-serif" font-size="10" style="white-space:pre">4</text><text id="svg_17" x="94.258" y="550.472" fill="#b2b2b2" font-family="Helvetica, Arial, sans-serif" font-size="10" style="white-space:pre">5</text><g id="svg_6" class="r3-middle posts"><rect id="c3r3p142sporgbr" width="16" height="20" x="25.258" y="520.472" fill="#e5e5e5" stroke="#7f7f7f"/><rect id="c3r3p242sporgbr" width="16" height="20" x="41.258" y="505.472" fill="#e5e5e5" stroke="#7f7f7f"/><rect id="c3r3p342sporgbr" width="16" height="20" x="57.258" y="520.472" fill="#e5e5e5" stroke="#7f7f7f"/><rect id="c3r3p442sporgbr" width="16" height="20" x="73.258" y="505.472" fill="#e5e5e5" stroke="#7f7f7f"/><rect id="c3r3p542sporgbr" width="16" height="20" x="89.258" y="520.472" fill="#e5e5e5" stroke="#7f7f7f"/><image id="c3r3p142sporgbr" width="16" height="20" x="33.258" y="347.472" preserveAspectRatio="xMidYMid slice"/><image id="c3r3p242sporgbr" width="16" height="20" x="49.258" y="332.472" preserveAspectRatio="xMidYMid slice"/><image id="c3r3p342sporgbr" width="16" height="20" x="65.258" y="347.472" preserveAspectRatio="xMidYMid slice"/><image id="c3r3p442sporgbr" width="16" height="20" x="81.258" y="332.472" preserveAspectRatio="xMidYMid slice"/><image id="c3r3p542sporgbr" width="16" height="20" x="65.258" y="347.472" preserveAspectRatio="xMidYMid slice"/></g></g><g id="svg_24" class="r4 middle"><text id="svg_20" x="30.258" y="505.472" fill="#b2b2b2" font-family="Helvetica, Arial, sans-serif" font-size="10" style="white-space:pre">1</text><text id="svg_21" x="46.258" y="490.472" fill="#b2b2b2" font-family="Helvetica, Arial, sans-serif" font-size="10" style="white-space:pre">2</text><text id="svg_22" x="62.258" y="505.472" fill="#b2b2b2" font-family="Helvetica, Arial, sans-serif" font-size="10" style="white-space:pre">3</text><text id="svg_23" x="78.258" y="490.472" fill="#b2b2b2" font-family="Helvetica, Arial, sans-serif" font-size="10" style="white-space:pre">4</text><text id="svg_23" x="94.258" y="505.472" fill="#b2b2b2" font-family="Helvetica, Arial, sans-serif" font-size="10" style="white-space:pre">5</text><g id="svg_6" class="r4-middle posts"><rect id="c3r4p142sporgbr" width="16" height="20" x="25.258" y="475.472" fill="#e5e5e5" stroke="#7f7f7f"/><rect id="c3r4p242sporgbr" width="16" height="20" x="41.258" y="460.472" fill="#e5e5e5" stroke="#7f7f7f"/><rect id="c3r4p342sporgbr" width="16" height="20" x="57.258" y="475.472" fill="#e5e5e5" stroke="#7f7f7f"/><rect id="c3r4p442sporgbr" width="16" height="20" x="73.258" y="460.472" fill="#e5e5e5" stroke="#7f7f7f"/><rect id="c3r4p542sporgbr" width="16" height="20" x="89.258" y="475.472" fill="#e5e5e5" stroke="#7f7f7f"/><image id="c3r4p142sporgbr" width="16" height="20" x="33.258" y="302.472" preserveAspectRatio="xMidYMid slice"/><image id="c3r4p242sporgbr" width="16" height="20" x="49.258" y="287.472" preserveAspectRatio="xMidYMid slice"/><image id="c3r4p342sporgbr" width="16" height="20" x="65.258" y="302.472" preserveAspectRatio="xMidYMid slice"/><image id="c3r4p442sporgbr" width="16" height="20" x="81.258" y="287.472" preserveAspectRatio="xMidYMid slice"/><image id="c3r4p542sporgbr" width="16" height="20" x="97.258" y="302.472" preserveAspectRatio="xMidYMid slice"/></g></g><g id="svg_30" class="r5 middle"><text id="svg_26" x="30.258" y="460.472" fill="#b2b2b2" font-family="Helvetica, Arial, sans-serif" font-size="10" style="white-space:pre">1</text><text id="svg_27" x="46.258" y="445.472" fill="#b2b2b2" font-family="Helvetica, Arial, sans-serif" font-size="10" style="white-space:pre">2</text><text id="svg_28" x="62.258" y="460.472" fill="#b2b2b2" font-family="Helvetica, Arial, sans-serif" font-size="10" style="white-space:pre">3</text><text id="svg_29" x="78.258" y="445.472" fill="#b2b2b2" font-family="Helvetica, Arial, sans-serif" font-size="10" style="white-space:pre">4</text><text id="svg_28" x="94.258" y="460.472" fill="#b2b2b2" font-family="Helvetica, Arial, sans-serif" font-size="10" style="white-space:pre">5</text><g id="svg_6" class="r5-middle posts"><rect id="c3r5p142sporgbr" width="16" height="20" x="25.258" y="430.472" fill="#e5e5e5" stroke="#7f7f7f"/><rect id="c3r5p242sporgbr" width="16" height="20" x="41.258" y="415.472" fill="#e5e5e5" stroke="#7f7f7f"/><rect id="c3r5p342sporgbr" width="16" height="20" x="57.258" y="430.472" fill="#e5e5e5" stroke="#7f7f7f"/><rect id="c3r5p442sporgbr" width="16" height="20" x="73.258" y="415.472" fill="#e5e5e5" stroke="#7f7f7f"/><rect id="c3r5p542sporgbr" width="16" height="20" x="89.258" y="430.472" fill="#e5e5e5" stroke="#7f7f7f"/><image id="c3r5p142sporgbr" width="16" height="20" x="33.258" y="257.472" preserveAspectRatio="xMidYMid slice"/><image id="c3r5p242sporgbr" width="16" height="20" x="49.258" y="242.472" preserveAspectRatio="xMidYMid slice"/><image id="c3r5p342sporgbr" width="16" height="20" x="65.258" y="257.472" preserveAspectRatio="xMidYMid slice"/><image id="c3r5p442sporgbr" width="16" height="20" x="81.258" y="242.472" preserveAspectRatio="xMidYMid slice"/><image id="c3r5p542sporgbr" width="16" height="20" x="97.258" y="257.472" preserveAspectRatio="xMidYMid slice"/></g></g><g id="svg_36" class="r6 middle"><text id="svg_32" x="30.258" y="415.472" fill="#b2b2b2" font-family="Helvetica, Arial, sans-serif" font-size="10" style="white-space:pre">1</text><text id="svg_33" x="46.258" y="400.472" fill="#b2b2b2" font-family="Helvetica, Arial, sans-serif" font-size="10" style="white-space:pre">2</text><text id="svg_34" x="62.258" y="415.472" fill="#b2b2b2" font-family="Helvetica, Arial, sans-serif" font-size="10" style="white-space:pre">3</text><text id="svg_35" x="78.258" y="400.472" fill="#b2b2b2" font-family="Helvetica, Arial, sans-serif" font-size="10" style="white-space:pre">4</text><text id="svg_34" x="94.258" y="415.472" fill="#b2b2b2" font-family="Helvetica, Arial, sans-serif" font-size="10" style="white-space:pre">5</text><g id="svg_6" class="r6-middle posts"><rect id="c3r6p142sporgbr" width="16" height="20" x="25.258" y="385.472" fill="#e5e5e5" stroke="#7f7f7f"/><rect id="c3r6p242sporgbr" width="16" height="20" x="41.258" y="370.472" fill="#e5e5e5" stroke="#7f7f7f"/><rect id="c3r6p342sporgbr" width="16" height="20" x="57.258" y="385.472" fill="#e5e5e5" stroke="#7f7f7f"/><rect id="c3r6p442sporgbr" width="16" height="20" x="73.258" y="370.472" fill="#e5e5e5" stroke="#7f7f7f"/><rect id="c3r6p542sporgbr" width="16" height="20" x="89.258" y="385.472" fill="#e5e5e5" stroke="#7f7f7f"/><image id="c3r6p142sporgbr" width="16" height="20" x="33.258" y="212.472" preserveAspectRatio="xMidYMid slice"/><image id="c3r6p242sporgbr" width="16" height="20" x="49.258" y="197.472" preserveAspectRatio="xMidYMid slice"/><image id="c3r6p342sporgbr" width="16" height="20" x="65.258" y="212.472" preserveAspectRatio="xMidYMid slice"/><image id="c3r6p442sporgbr" width="16" height="20" x="81.258" y="197.472" preserveAspectRatio="xMidYMid slice"/><image id="c3r6p542sporgbr" width="16" height="20" x="97.258" y="212.472" preserveAspectRatio="xMidYMid slice"/></g></g><g id="svg_42" class="r7 middle"><text id="svg_38" x="30.258" y="370.472" fill="#b2b2b2" font-family="Helvetica, Arial, sans-serif" font-size="10" style="white-space:pre">1</text><text id="svg_39" x="46.258" y="355.472" fill="#b2b2b2" font-family="Helvetica, Arial, sans-serif" font-size="10" style="white-space:pre">2</text><text id="svg_40" x="62.258" y="370.472" fill="#b2b2b2" font-family="Helvetica, Arial, sans-serif" font-size="10" style="white-space:pre">3</text><text id="svg_41" x="78.258" y="355.472" fill="#b2b2b2" font-family="Helvetica, Arial, sans-serif" font-size="10" style="white-space:pre">4</text><text id="svg_40" x="94.258" y="370.472" fill="#b2b2b2" font-family="Helvetica, Arial, sans-serif" font-size="10" style="white-space:pre">5</text><g id="svg_6" class="r7-middle posts"><rect id="c3r7p142sporgbr" width="16" height="20" x="25.258" y="340.472" fill="#e5e5e5" stroke="#7f7f7f"/><rect id="c3r7p242sporgbr" width="16" height="20" x="41.258" y="325.472" fill="#e5e5e5" stroke="#7f7f7f"/><rect id="c3r7p342sporgbr" width="16" height="20" x="57.258" y="340.472" fill="#e5e5e5" stroke="#7f7f7f"/><rect id="c3r7p442sporgbr" width="16" height="20" x="73.258" y="325.472" fill="#e5e5e5" stroke="#7f7f7f"/><rect id="c3r7p542sporgbr" width="16" height="20" x="89.258" y="340.472" fill="#e5e5e5" stroke="#7f7f7f"/><image id="c3r7p142sporgbr" width="16" height="20" x="33.258" y="167.472" preserveAspectRatio="xMidYMid slice"/><image id="c3r7p242sporgbr" width="16" height="20" x="49.258" y="152.472" preserveAspectRatio="xMidYMid slice"/><image id="c3r7p342sporgbr" width="16" height="20" x="65.258" y="167.472" preserveAspectRatio="xMidYMid slice"/><image id="c3r7p442sporgbr" width="16" height="20" x="81.258" y="152.472" preserveAspectRatio="xMidYMid slice"/><image id="c3r7p542sporgbr" width="16" height="20" x="97.258" y="167.472" preserveAspectRatio="xMidYMid slice"/></g></g><g id="svg_48" class="r8 middle"><text id="svg_44" x="30.258" y="325.472" fill="#b2b2b2" font-family="Helvetica, Arial, sans-serif" font-size="10" style="white-space:pre">1</text><text id="svg_45" x="46.258" y="310.472" fill="#b2b2b2" font-family="Helvetica, Arial, sans-serif" font-size="10" style="white-space:pre">2</text><text id="svg_46" x="62.258" y="325.472" fill="#b2b2b2" font-family="Helvetica, Arial, sans-serif" font-size="10" style="white-space:pre">3</text><text id="svg_47" x="78.258" y="310.472" fill="#b2b2b2" font-family="Helvetica, Arial, sans-serif" font-size="10" style="white-space:pre">4</text><text id="svg_46" x="94.258" y="325.472" fill="#b2b2b2" font-family="Helvetica, Arial, sans-serif" font-size="10" style="white-space:pre">5</text><g id="svg_6" class="r8-middle posts"><rect id="c3r8p142sporgbr" width="16" height="20" x="25.258" y="295.472" fill="#e5e5e5" stroke="#7f7f7f"/><rect id="c3r8p242sporgbr" width="16" height="20" x="41.258" y="280.472" fill="#e5e5e5" stroke="#7f7f7f"/><rect id="c3r8p342sporgbr" width="16" height="20" x="57.258" y="295.472" fill="#e5e5e5" stroke="#7f7f7f"/><rect id="c3r8p442sporgbr" width="16" height="20" x="73.258" y="280.472" fill="#e5e5e5" stroke="#7f7f7f"/><rect id="c3r8p542sporgbr" width="16" height="20" x="89.258" y="295.472" fill="#e5e5e5" stroke="#7f7f7f"/><image id="c3r8p142sporgbr" width="16" height="20" x="33.258" y="122.472" preserveAspectRatio="xMidYMid slice"/><image id="c3r8p242sporgbr" width="16" height="20" x="49.258" y="107.472" preserveAspectRatio="xMidYMid slice"/><image id="c3r8p342sporgbr" width="16" height="20" x="65.258" y="122.472" preserveAspectRatio="xMidYMid slice"/><image id="c3r8p442sporgbr" width="16" height="20" x="81.258" y="107.472" preserveAspectRatio="xMidYMid slice"/><image id="c3r8p542sporgbr" width="16" height="20" x="97.258" y="122.472" preserveAspectRatio="xMidYMid slice"/></g></g><g id="svg_54" class="r9 middle"><text id="svg_50" x="30.258" y="280.472" fill="#b2b2b2" font-family="Helvetica, Arial, sans-serif" font-size="10" style="white-space:pre">1</text><text id="svg_51" x="46.258" y="265.472" fill="#b2b2b2" font-family="Helvetica, Arial, sans-serif" font-size="10" style="white-space:pre">2</text><text id="svg_52" x="62.258" y="280.472" fill="#b2b2b2" font-family="Helvetica, Arial, sans-serif" font-size="10" style="white-space:pre">3</text><text id="svg_53" x="78.258" y="265.472" fill="#b2b2b2" font-family="Helvetica, Arial, sans-serif" font-size="10" style="white-space:pre">4</text><g id="svg_6" class="r9-middle posts"><rect id="c3r9p142sporgbr" width="16" height="20" x="25.258" y="250.472" fill="#e5e5e5" stroke="#7f7f7f"/><rect id="c3r9p242sporgbr" width="16" height="20" x="41.258" y="235.472" fill="#e5e5e5" stroke="#7f7f7f"/><rect id="c3r9p342sporgbr" width="16" height="20" x="57.258" y="250.472" fill="#e5e5e5" stroke="#7f7f7f"/><rect id="c3r9p442sporgbr" width="16" height="20" x="73.258" y="235.472" fill="#e5e5e5" stroke="#7f7f7f"/><image id="c3r9p142sporgbr" width="16" height="20" x="33.258" y="77.472" preserveAspectRatio="xMidYMid slice"/><image id="c3r9p242sporgbr" width="16" height="20" x="49.258" y="62.472" preserveAspectRatio="xMidYMid slice"/><image id="c3r9p342sporgbr" width="16" height="20" x="65.258" y="77.472" preserveAspectRatio="xMidYMid slice"/><image id="c3r9p442sporgbr" width="16" height="20" x="81.258" y="62.472" preserveAspectRatio="xMidYMid slice"/></g></g><g id="svg_60" class="r10 middle"><text id="svg_56" x="30.258" y="235.472" fill="#b2b2b2" font-family="Helvetica, Arial, sans-serif" font-size="10" style="white-space:pre">1</text><text id="svg_57" x="62.258" y="235.472" fill="#b2b2b2" font-family="Helvetica, Arial, sans-serif" font-size="10" style="white-space:pre">3</text><text id="svg_58" x="46.258" y="220.472" fill="#b2b2b2" font-family="Helvetica, Arial, sans-serif" font-size="10" style="white-space:pre">2</text><text id="svg_59" x="78.258" y="220.472" fill="#b2b2b2" font-family="Helvetica, Arial, sans-serif" font-size="10" style="white-space:pre">4</text><text id="svg_57" x="94.258" y="235.472" fill="#b2b2b2" font-family="Helvetica, Arial, sans-serif" font-size="10" style="white-space:pre">5</text><g id="svg_6" class="r10-middle posts"><rect id="c3r10p142sporgbr" width="16" height="20" x="25.258" y="205.472" fill="#e5e5e5" stroke="#7f7f7f"/><rect id="c3r10p242sporgbr" width="16" height="20" x="41.258" y="190.472" fill="#e5e5e5" stroke="#7f7f7f"/><rect id="c3r10p342sporgbr" width="16" height="20" x="57.258" y="205.472" fill="#e5e5e5" stroke="#7f7f7f"/><rect id="c3r10p442sporgbr" width="16" height="20" x="73.258" y="190.472" fill="#e5e5e5" stroke="#7f7f7f"/><rect id="c3r10p542sporgbr" width="16" height="20" x="89.258" y="205.472" fill="#e5e5e5" stroke="#7f7f7f"/><image id="c3r10p142sporgbr" width="16" height="20" x="33.258" y="32.472" preserveAspectRatio="xMidYMid slice"/><image id="c3r10p242sporgbr" width="16" height="20" x="49.258" y="17.472" preserveAspectRatio="xMidYMid slice"/><image id="c3r10p342sporgbr" width="16" height="20" x="65.258" y="32.472" preserveAspectRatio="xMidYMid slice"/><image id="c3r10p442sporgbr" width="16" height="20" x="81.258" y="17.472" preserveAspectRatio="xMidYMid slice"/><image id="c3r10p542sporgbr" width="16" height="20" x="97.258" y="32.472" preserveAspectRatio="xMidYMid slice"/></g></g><g class="r11 middle"><text id="svg_56" x="30.258" y="190.472" fill="#b2b2b2" font-family="Helvetica, Arial, sans-serif" font-size="10" style="white-space:pre">1</text><text id="svg_57" x="62.258" y="190.472" fill="#b2b2b2" font-family="Helvetica, Arial, sans-serif" font-size="10" style="white-space:pre">3</text><text id="svg_58" x="46.258" y="175.472" fill="#b2b2b2" font-family="Helvetica, Arial, sans-serif" font-size="10" style="white-space:pre">2</text><text id="svg_59" x="78.258" y="175.472" fill="#b2b2b2" font-family="Helvetica, Arial, sans-serif" font-size="10" style="white-space:pre">4</text><text id="svg_57" x="94.258" y="190.472" fill="#b2b2b2" font-family="Helvetica, Arial, sans-serif" font-size="10" style="white-space:pre">5</text><g id="svg_6" class="r11-middle posts"><rect id="c3r11p142sporgbr" width="16" height="20" x="25.258" y="160.472" fill="#e5e5e5" stroke="#7f7f7f"/><rect id="c3r11p242sporgbr" width="16" height="20" x="41.258" y="145.472" fill="#e5e5e5" stroke="#7f7f7f"/><rect id="c3r11p342sporgbr" width="16" height="20" x="57.258" y="160.472" fill="#e5e5e5" stroke="#7f7f7f"/><rect id="c3r11p442sporgbr" width="16" height="20" x="73.258" y="145.472" fill="#e5e5e5" stroke="#7f7f7f"/><rect id="c3r11p542sporgbr" width="16" height="20" x="89.258" y="160.472" fill="#e5e5e5" stroke="#7f7f7f"/><image id="c3r11p142sporgbr" width="16" height="20" x="33.258" y="32.472" preserveAspectRatio="xMidYMid slice"/><image id="c3r11p242sporgbr" width="16" height="20" x="49.258" y="17.472" preserveAspectRatio="xMidYMid slice"/><image id="c3r11p342sporgbr" width="16" height="20" x="65.258" y="32.472" preserveAspectRatio="xMidYMid slice"/><image id="c3r11p442sporgbr" width="16" height="20" x="81.258" y="17.472" preserveAspectRatio="xMidYMid slice"/><image id="c3r11p542sporgbr" width="16" height="20" x="97.258" y="32.472" preserveAspectRatio="xMidYMid slice"/></g></g><g class="r12 middle"><text id="svg_56" x="29.258" y="143.472" fill="#b2b2b2" font-family="Helvetica, Arial, sans-serif" font-size="10" style="white-space:pre">1</text><text id="svg_57" x="61.258" y="143.472" fill="#b2b2b2" font-family="Helvetica, Arial, sans-serif" font-size="10" style="white-space:pre">3</text><text id="svg_58" x="45.258" y="128.472" fill="#b2b2b2" font-family="Helvetica, Arial, sans-serif" font-size="10" style="white-space:pre">2</text><text id="svg_59" x="77.258" y="128.472" fill="#b2b2b2" font-family="Helvetica, Arial, sans-serif" font-size="10" style="white-space:pre">4</text><text id="svg_57" x="93.258" y="143.472" fill="#b2b2b2" font-family="Helvetica, Arial, sans-serif" font-size="10" style="white-space:pre">5</text><g id="svg_60" class="r12-middle posts"><rect id="c3r12p142sporgbr" width="16" height="20" x="24.258" y="113.472" fill="#e5e5e5" stroke="#7f7f7f"/><rect id="c3r12p242sporgbr" width="16" height="20" x="40.258" y="98.472" fill="#e5e5e5" stroke="#7f7f7f"/><rect id="c3r12p342sporgbr" width="16" height="20" x="56.258" y="113.472" fill="#e5e5e5" stroke="#7f7f7f"/><rect id="c3r12p442sporgbr" width="16" height="20" x="72.258" y="98.472" fill="#e5e5e5" stroke="#7f7f7f"/><rect id="c3r12p542sporgbr" width="16" height="20" x="88.258" y="113.472" fill="#e5e5e5" stroke="#7f7f7f"/><image id="c3r12p142sporgbr" width="16" height="20" x="33.258" y="32.472" preserveAspectRatio="xMidYMid slice"/><image id="c3r12p242sporgbr" width="16" height="20" x="49.258" y="17.472" preserveAspectRatio="xMidYMid slice"/><image id="c3r12p342sporgbr" width="16" height="20" x="65.258" y="32.472" preserveAspectRatio="xMidYMid slice"/><image id="c3r12p442sporgbr" width="16" height="20" x="81.258" y="17.472" preserveAspectRatio="xMidYMid slice"/><image id="c3r12p542sporgbr" width="16" height="20" x="97.258" y="32.472" preserveAspectRatio="xMidYMid slice"/></g></g><g class="r13 middle"><text id="svg_56" x="29.258" y="91.472" fill="#b2b2b2" font-family="Helvetica, Arial, sans-serif" font-size="10" style="white-space:pre">1</text><text id="svg_57" x="61.258" y="91.472" fill="#b2b2b2" font-family="Helvetica, Arial, sans-serif" font-size="10" style="white-space:pre">3</text><text id="svg_58" x="45.258" y="76.472" fill="#b2b2b2" font-family="Helvetica, Arial, sans-serif" font-size="10" style="white-space:pre">2</text><text id="svg_59" x="77.258" y="76.472" fill="#b2b2b2" font-family="Helvetica, Arial, sans-serif" font-size="10" style="white-space:pre">4</text><text id="svg_57" x="93.258" y="91.472" fill="#b2b2b2" font-family="Helvetica, Arial, sans-serif" font-size="10" style="white-space:pre">5</text><g id="svg_60" class="r13-middle posts"><rect id="c3r13p142sporgbr" width="16" height="20" x="24.258" y="61.472" fill="#e5e5e5" stroke="#7f7f7f"/><rect id="c3r13p242sporgbr" width="16" height="20" x="40.258" y="46.472" fill="#e5e5e5" stroke="#7f7f7f"/><rect id="c3r13p342sporgbr" width="16" height="20" x="56.258" y="61.472" fill="#e5e5e5" stroke="#7f7f7f"/><rect id="c3r13p442sporgbr" width="16" height="20" x="72.258" y="46.472" fill="#e5e5e5" stroke="#7f7f7f"/><rect id="c3r13p542sporgbr" width="16" height="20" x="88.258" y="61.472" fill="#e5e5e5" stroke="#7f7f7f"/><image id="c3r13p142sporgbr" width="16" height="20" x="33.258" y="32.472" preserveAspectRatio="xMidYMid slice"/><image id="c3r13p242sporgbr" width="16" height="20" x="49.258" y="17.472" preserveAspectRatio="xMidYMid slice"/><image id="c3r13p342sporgbr" width="16" height="20" x="65.258" y="32.472" preserveAspectRatio="xMidYMid slice"/><image id="c3r13p442sporgbr" width="16" height="20" x="81.258" y="17.472" preserveAspectRatio="xMidYMid slice"/><image id="c3r13p542sporgbr" width="16" height="20" x="97.258" y="32.472" preserveAspectRatio="xMidYMid slice"/></g></g><g id="svg_61" class="text"><text id="svg_62" x="115.258" y="214.472" fill="#ccc" font-family="Helvetica, Arial, sans-serif" font-size="20" font-weight="bold" style="white-space:pre">R10</text><text x="115.258" y="169.472" fill="#ccc" font-family="Helvetica, Arial, sans-serif" font-size="20" font-weight="bold" style="white-space:pre">R11</text><text x="115.258" y="122.472" fill="#ccc" font-family="Helvetica, Arial, sans-serif" font-size="20" font-weight="bold" style="white-space:pre">R12</text><text x="115.258" y="70.472" fill="#ccc" font-family="Helvetica, Arial, sans-serif" font-size="20" font-weight="bold" style="white-space:pre">R13</text><text id="svg_63" x="115.258" y="259.472" fill="#ccc" font-family="Helvetica, Arial, sans-serif" font-size="20" font-weight="bold" style="white-space:pre">R9</text><text id="svg_64" x="115.258" y="304.472" fill="#ccc" font-family="Helvetica, Arial, sans-serif" font-size="20" font-weight="bold" style="white-space:pre">R8</text><text id="svg_65" x="115.258" y="349.472" fill="#ccc" font-family="Helvetica, Arial, sans-serif" font-size="20" font-weight="bold" style="white-space:pre">R7</text><text id="svg_66" x="115.258" y="394.472" fill="#ccc" font-family="Helvetica, Arial, sans-serif" font-size="20" font-weight="bold" style="white-space:pre">R6</text><text id="svg_67" x="115.258" y="439.472" fill="#ccc" font-family="Helvetica, Arial, sans-serif" font-size="20" font-weight="bold" style="white-space:pre">R5</text><text id="svg_68" x="115.258" y="484.472" fill="#ccc" font-family="Helvetica, Arial, sans-serif" font-size="20" font-weight="bold" style="white-space:pre">R4</text><text id="svg_69" x="115.258" y="529.472" fill="#ccc" font-family="Helvetica, Arial, sans-serif" font-size="20" font-weight="bold" style="white-space:pre">R3</text><text id="svg_70" x="115.258" y="574.472" fill="#ccc" font-family="Helvetica, Arial, sans-serif" font-size="20" font-weight="bold" style="white-space:pre">R2</text><text id="svg_71" x="115.258" y="619.472" fill="#ccc" font-family="Helvetica, Arial, sans-serif" font-size="20" font-weight="bold" style="white-space:pre">R1</text><text id="svg_71" x="32.258" y="666.472" fill="#ccc" font-family="Helvetica, Arial, sans-serif" font-size="20" font-weight="bold" style="white-space:pre">ENTRADA</text></g></g></svg>