<svg xmlns="http://www.w3.org/2000/svg" xmlns:xlink="http://www.w3.org/1999/xlink" viewBox="0 0 600 960"><script/><g class="c5r9"><text x="414" y="110" fill="#b2b2b2" font-family="Helvetica, Arial, sans-serif" font-size="10" text-anchor="start" style="white-space:pre">7</text><text x="398" y="125" fill="#b2b2b2" font-family="Helvetica, Arial, sans-serif" font-size="10" text-anchor="start" style="white-space:pre">6</text><text x="382" y="110" fill="#b2b2b2" font-family="Helvetica, Arial, sans-serif" font-size="10" text-anchor="start" style="white-space:pre">5</text><text x="366" y="125" fill="#b2b2b2" font-family="Helvetica, Arial, sans-serif" font-size="10" text-anchor="start" style="white-space:pre">4</text><text x="350" y="110" fill="#b2b2b2" font-family="Helvetica, Arial, sans-serif" font-size="10" text-anchor="start" style="white-space:pre">3</text><text x="334" y="125" fill="#b2b2b2" font-family="Helvetica, Arial, sans-serif" font-size="10" text-anchor="start" style="white-space:pre">2</text><text x="318" y="110" fill="#b2b2b2" font-family="Helvetica, Arial, sans-serif" font-size="10" text-anchor="start" style="white-space:pre">1</text><g class="r9 seats"><rect id="c5r9s7" width="16" height="20" x="410" y="80" fill="#e5e5e5" stroke="#7f7f7f"/><rect id="c5r9s6" width="16" height="20" x="394" y="95" fill="#e5e5e5" stroke="#7f7f7f"/><rect id="c5r9s5" width="16" height="20" x="378" y="80" fill="#e5e5e5" stroke="#7f7f7f"/><rect id="c5r9s4" width="16" height="20" x="362" y="95" fill="#e5e5e5" stroke="#7f7f7f"/><rect id="c5r9s3" width="16" height="20" x="346" y="80" fill="#e5e5e5" stroke="#7f7f7f"/><rect id="c5r9s2" width="16" height="20" x="330" y="95" fill="#e5e5e5" stroke="#7f7f7f"/><rect id="c5r9s1" width="16" height="20" x="314" y="80" fill="#e5e5e5" stroke="#7f7f7f"/><image id="c5r9s7" width="16" height="20" x="410" y="80" preserveAspectRatio="xMidYMid slice"/><image id="c5r9s6" width="16" height="20" x="394" y="95" preserveAspectRatio="xMidYMid slice"/><image id="c5r9s5" width="16" height="20" x="378" y="80" preserveAspectRatio="xMidYMid slice"/><image id="c5r9s4" width="16" height="20" x="362" y="95" preserveAspectRatio="xMidYMid slice"/><image id="c5r9s3" width="16" height="20" x="346" y="80" preserveAspectRatio="xMidYMid slice"/><image id="c5r9s2" width="16" height="20" x="330" y="95" preserveAspectRatio="xMidYMid slice"/><image id="c5r9s1" width="16" height="20" x="314" y="80" preserveAspectRatio="xMidYMid slice"/></g></g><g class="c5r8"><text x="414" y="170" fill="#b2b2b2" font-family="Helvetica, Arial, sans-serif" font-size="10" text-anchor="start" style="white-space:pre">7</text><text x="398" y="185" fill="#b2b2b2" font-family="Helvetica, Arial, sans-serif" font-size="10" text-anchor="start" style="white-space:pre">6</text><text x="382" y="170" fill="#b2b2b2" font-family="Helvetica, Arial, sans-serif" font-size="10" text-anchor="start" style="white-space:pre">5</text><text x="366" y="185" fill="#b2b2b2" font-family="Helvetica, Arial, sans-serif" font-size="10" text-anchor="start" style="white-space:pre">4</text><text x="350" y="170" fill="#b2b2b2" font-family="Helvetica, Arial, sans-serif" font-size="10" text-anchor="start" style="white-space:pre">3</text><text x="334" y="185" fill="#b2b2b2" font-family="Helvetica, Arial, sans-serif" font-size="10" text-anchor="start" style="white-space:pre">2</text><text x="318" y="170" fill="#b2b2b2" font-family="Helvetica, Arial, sans-serif" font-size="10" text-anchor="start" style="white-space:pre">1</text><g class="r8 seats"><rect id="c5r8s7" width="16" height="20" x="410" y="140" fill="#e5e5e5" stroke="#7f7f7f"/><rect id="c5r8s6" width="16" height="20" x="394" y="155" fill="#e5e5e5" stroke="#7f7f7f"/><rect id="c5r8s5" width="16" height="20" x="378" y="140" fill="#e5e5e5" stroke="#7f7f7f"/><rect id="c5r8s4" width="16" height="20" x="362" y="155" fill="#e5e5e5" stroke="#7f7f7f"/><rect id="c5r8s3" width="16" height="20" x="346" y="140" fill="#e5e5e5" stroke="#7f7f7f"/><rect id="c5r8s2" width="16" height="20" x="330" y="155" fill="#e5e5e5" stroke="#7f7f7f"/><rect id="c5r8s1" width="16" height="20" x="314" y="140" fill="#e5e5e5" stroke="#7f7f7f"/><image id="c5r8s7" width="16" height="20" x="410" y="140" preserveAspectRatio="xMidYMid slice"/><image id="c5r8s6" width="16" height="20" x="394" y="155" preserveAspectRatio="xMidYMid slice"/><image id="c5r8s5" width="16" height="20" x="378" y="140" preserveAspectRatio="xMidYMid slice"/><image id="c5r8s4" width="16" height="20" x="362" y="155" preserveAspectRatio="xMidYMid slice"/><image id="c5r8s3" width="16" height="20" x="346" y="140" preserveAspectRatio="xMidYMid slice"/><image id="c5r8s2" width="16" height="20" x="330" y="155" preserveAspectRatio="xMidYMid slice"/><image id="c5r8s1" width="16" height="20" x="314" y="140" preserveAspectRatio="xMidYMid slice"/></g></g><g class="c5r7"><text x="414" y="230" fill="#b2b2b2" font-family="Helvetica, Arial, sans-serif" font-size="10" text-anchor="start" style="white-space:pre">7</text><text x="398" y="245" fill="#b2b2b2" font-family="Helvetica, Arial, sans-serif" font-size="10" text-anchor="start" style="white-space:pre">6</text><text x="382" y="230" fill="#b2b2b2" font-family="Helvetica, Arial, sans-serif" font-size="10" text-anchor="start" style="white-space:pre">5</text><text x="366" y="245" fill="#b2b2b2" font-family="Helvetica, Arial, sans-serif" font-size="10" text-anchor="start" style="white-space:pre">4</text><text x="350" y="230" fill="#b2b2b2" font-family="Helvetica, Arial, sans-serif" font-size="10" text-anchor="start" style="white-space:pre">3</text><text x="334" y="245" fill="#b2b2b2" font-family="Helvetica, Arial, sans-serif" font-size="10" text-anchor="start" style="white-space:pre">2</text><text x="318" y="230" fill="#b2b2b2" font-family="Helvetica, Arial, sans-serif" font-size="10" text-anchor="start" style="white-space:pre">1</text><g class="r7 seats"><rect id="c5r7s7" width="16" height="20" x="410" y="200" fill="#e5e5e5" stroke="#7f7f7f"/><rect id="c5r7s6" width="16" height="20" x="394" y="215" fill="#e5e5e5" stroke="#7f7f7f"/><rect id="c5r7s5" width="16" height="20" x="378" y="200" fill="#e5e5e5" stroke="#7f7f7f"/><rect id="c5r7s4" width="16" height="20" x="362" y="215" fill="#e5e5e5" stroke="#7f7f7f"/><rect id="c5r7s3" width="16" height="20" x="346" y="200" fill="#e5e5e5" stroke="#7f7f7f"/><rect id="c5r7s2" width="16" height="20" x="330" y="215" fill="#e5e5e5" stroke="#7f7f7f"/><rect id="c5r7s1" width="16" height="20" x="314" y="200" fill="#e5e5e5" stroke="#7f7f7f"/><image id="c5r7s7" width="16" height="20" x="410" y="200" preserveAspectRatio="xMidYMid slice"/><image id="c5r7s6" width="16" height="20" x="394" y="215" preserveAspectRatio="xMidYMid slice"/><image id="c5r7s5" width="16" height="20" x="378" y="200" preserveAspectRatio="xMidYMid slice"/><image id="c5r7s4" width="16" height="20" x="362" y="215" preserveAspectRatio="xMidYMid slice"/><image id="c5r7s3" width="16" height="20" x="346" y="200" preserveAspectRatio="xMidYMid slice"/><image id="c5r7s2" width="16" height="20" x="330" y="215" preserveAspectRatio="xMidYMid slice"/><image id="c5r7s1" width="16" height="20" x="314" y="200" preserveAspectRatio="xMidYMid slice"/></g></g><g class="c5r6"><text x="414" y="290" fill="#b2b2b2" font-family="Helvetica, Arial, sans-serif" font-size="10" text-anchor="start" style="white-space:pre">7</text><text x="398" y="305" fill="#b2b2b2" font-family="Helvetica, Arial, sans-serif" font-size="10" text-anchor="start" style="white-space:pre">6</text><text x="382" y="290" fill="#b2b2b2" font-family="Helvetica, Arial, sans-serif" font-size="10" text-anchor="start" style="white-space:pre">5</text><text x="366" y="305" fill="#b2b2b2" font-family="Helvetica, Arial, sans-serif" font-size="10" text-anchor="start" style="white-space:pre">4</text><text x="350" y="290" fill="#b2b2b2" font-family="Helvetica, Arial, sans-serif" font-size="10" text-anchor="start" style="white-space:pre">3</text><text x="334" y="305" fill="#b2b2b2" font-family="Helvetica, Arial, sans-serif" font-size="10" text-anchor="start" style="white-space:pre">2</text><text x="318" y="290" fill="#b2b2b2" font-family="Helvetica, Arial, sans-serif" font-size="10" text-anchor="start" style="white-space:pre">1</text><g class="r6 seats"><rect id="c5r6s7" width="16" height="20" x="410" y="260" fill="#e5e5e5" stroke="#7f7f7f"/><rect id="c5r6s6" width="16" height="20" x="394" y="275" fill="#e5e5e5" stroke="#7f7f7f"/><rect id="c5r6s5" width="16" height="20" x="378" y="260" fill="#e5e5e5" stroke="#7f7f7f"/><rect id="c5r6s4" width="16" height="20" x="362" y="275" fill="#e5e5e5" stroke="#7f7f7f"/><rect id="c5r6s3" width="16" height="20" x="346" y="260" fill="#e5e5e5" stroke="#7f7f7f"/><rect id="c5r6s2" width="16" height="20" x="330" y="275" fill="#e5e5e5" stroke="#7f7f7f"/><rect id="c5r6s1" width="16" height="20" x="314" y="260" fill="#e5e5e5" stroke="#7f7f7f"/><image id="c5r6s7" width="16" height="20" x="410" y="260" preserveAspectRatio="xMidYMid slice"/><image id="c5r6s6" width="16" height="20" x="394" y="275" preserveAspectRatio="xMidYMid slice"/><image id="c5r6s5" width="16" height="20" x="378" y="260" preserveAspectRatio="xMidYMid slice"/><image id="c5r6s4" width="16" height="20" x="362" y="275" preserveAspectRatio="xMidYMid slice"/><image id="c5r6s3" width="16" height="20" x="346" y="260" preserveAspectRatio="xMidYMid slice"/><image id="c5r6s2" width="16" height="20" x="330" y="275" preserveAspectRatio="xMidYMid slice"/><image id="c5r6s1" width="16" height="20" x="314" y="260" preserveAspectRatio="xMidYMid slice"/></g></g><g class="c5r5"><text x="414" y="350" fill="#b2b2b2" font-family="Helvetica, Arial, sans-serif" font-size="10" text-anchor="start" style="white-space:pre">7</text><text x="398" y="366" fill="#b2b2b2" font-family="Helvetica, Arial, sans-serif" font-size="10" text-anchor="start" style="white-space:pre;font-size:10px">6</text><text x="382" y="350" fill="#b2b2b2" font-family="Helvetica, Arial, sans-serif" font-size="10" text-anchor="start" style="white-space:pre">5</text><text x="366" y="366" fill="#b2b2b2" font-family="Helvetica, Arial, sans-serif" font-size="10" text-anchor="start" style="white-space:pre;font-size:10px">4</text><text x="350" y="350" fill="#b2b2b2" font-family="Helvetica, Arial, sans-serif" font-size="10" text-anchor="start" style="white-space:pre">3</text><text x="334" y="366" fill="#b2b2b2" font-family="Helvetica, Arial, sans-serif" font-size="10" text-anchor="start" style="white-space:pre;font-size:10px">2</text><text x="318" y="350" fill="#b2b2b2" font-family="Helvetica, Arial, sans-serif" font-size="10" text-anchor="start" style="white-space:pre">1</text><g class="r5 seats"><rect id="c5r5s7" width="16" height="20" x="410" y="320" fill="#e5e5e5" stroke="#7f7f7f"/><rect id="c5r5s6" width="16" height="20" x="394" y="335" fill="#e5e5e5" stroke="#7f7f7f"/><rect id="c5r5s5" width="16" height="20" x="378" y="320" fill="#e5e5e5" stroke="#7f7f7f"/><rect id="c5r5s4" width="16" height="20" x="362" y="335" fill="#e5e5e5" stroke="#7f7f7f"/><rect id="c5r5s3" width="16" height="20" x="346" y="320" fill="#e5e5e5" stroke="#7f7f7f"/><rect id="c5r5s2" width="16" height="20" x="330" y="335" fill="#e5e5e5" stroke="#7f7f7f"/><rect id="c5r5s1" width="16" height="20" x="314" y="320" fill="#e5e5e5" stroke="#7f7f7f"/><image id="c5r5s7" width="16" height="20" x="410" y="320" preserveAspectRatio="xMidYMid slice"/><image id="c5r5s6" width="16" height="20" x="394" y="335" preserveAspectRatio="xMidYMid slice"/><image id="c5r5s5" width="16" height="20" x="378" y="320" preserveAspectRatio="xMidYMid slice"/><image id="c5r5s4" width="16" height="20" x="362" y="335" preserveAspectRatio="xMidYMid slice"/><image id="c5r5s3" width="16" height="20" x="346" y="320" preserveAspectRatio="xMidYMid slice"/><image id="c5r5s2" width="16" height="20" x="330" y="335" preserveAspectRatio="xMidYMid slice"/><image id="c5r5s1" width="16" height="20" x="314" y="320" preserveAspectRatio="xMidYMid slice"/></g></g><g class="c5r4"><text x="414" y="410" fill="#b2b2b2" font-family="Helvetica, Arial, sans-serif" font-size="10" text-anchor="start" style="white-space:pre">7</text><text x="398" y="425" fill="#b2b2b2" font-family="Helvetica, Arial, sans-serif" font-size="10" text-anchor="start" style="white-space:pre">6</text><text x="382" y="410" fill="#b2b2b2" font-family="Helvetica, Arial, sans-serif" font-size="10" text-anchor="start" style="white-space:pre">5</text><text x="366" y="425" fill="#b2b2b2" font-family="Helvetica, Arial, sans-serif" font-size="10" text-anchor="start" style="white-space:pre">4</text><text x="350" y="410" fill="#b2b2b2" font-family="Helvetica, Arial, sans-serif" font-size="10" text-anchor="start" style="white-space:pre">3</text><text x="334" y="425" fill="#b2b2b2" font-family="Helvetica, Arial, sans-serif" font-size="10" text-anchor="start" style="white-space:pre">2</text><text x="318" y="410" fill="#b2b2b2" font-family="Helvetica, Arial, sans-serif" font-size="10" text-anchor="start" style="white-space:pre">1</text><g class="r4 seats"><rect id="c5r4s7" width="16" height="20" x="410" y="380" fill="#e5e5e5" stroke="#7f7f7f"/><rect id="c5r4s6" width="16" height="20" x="394" y="395" fill="#e5e5e5" stroke="#7f7f7f"/><rect id="c5r4s5" width="16" height="20" x="378" y="380" fill="#e5e5e5" stroke="#7f7f7f"/><rect id="c5r4s4" width="16" height="20" x="362" y="395" fill="#e5e5e5" stroke="#7f7f7f"/><rect id="c5r4s3" width="16" height="20" x="346" y="380" fill="#e5e5e5" stroke="#7f7f7f"/><rect id="c5r4s2" width="16" height="20" x="330" y="395" fill="#e5e5e5" stroke="#7f7f7f"/><rect id="c5r4s1" width="16" height="20" x="314" y="380" fill="#e5e5e5" stroke="#7f7f7f"/><image id="c5r4s7" width="16" height="20" x="410" y="380" preserveAspectRatio="xMidYMid slice"/><image id="c5r4s6" width="16" height="20" x="394" y="395" preserveAspectRatio="xMidYMid slice"/><image id="c5r4s5" width="16" height="20" x="378" y="380" preserveAspectRatio="xMidYMid slice"/><image id="c5r4s4" width="16" height="20" x="362" y="395" preserveAspectRatio="xMidYMid slice"/><image id="c5r4s3" width="16" height="20" x="346" y="380" preserveAspectRatio="xMidYMid slice"/><image id="c5r4s2" width="16" height="20" x="330" y="395" preserveAspectRatio="xMidYMid slice"/><image id="c5r4s1" width="16" height="20" x="314" y="380" preserveAspectRatio="xMidYMid slice"/></g></g><g class="c5r3"><text x="414" y="470" fill="#b2b2b2" font-family="Helvetica, Arial, sans-serif" font-size="10" text-anchor="start" style="white-space:pre">7</text><text x="398" y="485" fill="#b2b2b2" font-family="Helvetica, Arial, sans-serif" font-size="10" text-anchor="start" style="white-space:pre">6</text><text x="382" y="470" fill="#b2b2b2" font-family="Helvetica, Arial, sans-serif" font-size="10" text-anchor="start" style="white-space:pre">5</text><text x="366" y="485" fill="#b2b2b2" font-family="Helvetica, Arial, sans-serif" font-size="10" text-anchor="start" style="white-space:pre">4</text><text x="350" y="470" fill="#b2b2b2" font-family="Helvetica, Arial, sans-serif" font-size="10" text-anchor="start" style="white-space:pre">3</text><text x="334" y="485" fill="#b2b2b2" font-family="Helvetica, Arial, sans-serif" font-size="10" text-anchor="start" style="white-space:pre">2</text><text x="318" y="470" fill="#b2b2b2" font-family="Helvetica, Arial, sans-serif" font-size="10" text-anchor="start" style="white-space:pre">1</text><g class="r3 seats"><rect id="c5r3s7" width="16" height="20" x="410" y="440" fill="#e5e5e5" stroke="#7f7f7f"/><rect id="c5r3s6" width="16" height="20" x="394" y="455" fill="#e5e5e5" stroke="#7f7f7f"/><rect id="c5r3s5" width="16" height="20" x="378" y="440" fill="#e5e5e5" stroke="#7f7f7f"/><rect id="c5r3s4" width="16" height="20" x="362" y="455" fill="#e5e5e5" stroke="#7f7f7f"/><rect id="c5r3s3" width="16" height="20" x="346" y="440" fill="#e5e5e5" stroke="#7f7f7f"/><rect id="c5r3s2" width="16" height="20" x="330" y="455" fill="#e5e5e5" stroke="#7f7f7f"/><rect id="c5r3s1" width="16" height="20" x="314" y="440" fill="#e5e5e5" stroke="#7f7f7f"/><image id="c5r3s7" width="16" height="20" x="410" y="440" preserveAspectRatio="xMidYMid slice"/><image id="c5r3s6" width="16" height="20" x="394" y="455" preserveAspectRatio="xMidYMid slice"/><image id="c5r3s5" width="16" height="20" x="378" y="440" preserveAspectRatio="xMidYMid slice"/><image id="c5r3s4" width="16" height="20" x="362" y="455" preserveAspectRatio="xMidYMid slice"/><image id="c5r3s3" width="16" height="20" x="346" y="440" preserveAspectRatio="xMidYMid slice"/><image id="c5r3s2" width="16" height="20" x="330" y="455" preserveAspectRatio="xMidYMid slice"/><image id="c5r3s1" width="16" height="20" x="314" y="440" preserveAspectRatio="xMidYMid slice"/></g></g><g class="c5r2"><text x="414" y="530" fill="#b2b2b2" font-family="Helvetica, Arial, sans-serif" font-size="10" text-anchor="start" style="white-space:pre">7</text><text x="398" y="545" fill="#b2b2b2" font-family="Helvetica, Arial, sans-serif" font-size="10" text-anchor="start" style="white-space:pre">6</text><text x="382" y="530" fill="#b2b2b2" font-family="Helvetica, Arial, sans-serif" font-size="10" text-anchor="start" style="white-space:pre">5</text><text x="366" y="545" fill="#b2b2b2" font-family="Helvetica, Arial, sans-serif" font-size="10" text-anchor="start" style="white-space:pre">4</text><text x="350" y="530" fill="#b2b2b2" font-family="Helvetica, Arial, sans-serif" font-size="10" text-anchor="start" style="white-space:pre">3</text><text x="334" y="545" fill="#b2b2b2" font-family="Helvetica, Arial, sans-serif" font-size="10" text-anchor="start" style="white-space:pre">2</text><text x="318" y="530" fill="#b2b2b2" font-family="Helvetica, Arial, sans-serif" font-size="10" text-anchor="start" style="white-space:pre">1</text><g class="r2 seats"><rect id="c5r2s7" width="16" height="20" x="410" y="500" fill="#e5e5e5" stroke="#7f7f7f"/><rect id="c5r2s6" width="16" height="20" x="394" y="515" fill="#e5e5e5" stroke="#7f7f7f"/><rect id="c5r2s5" width="16" height="20" x="378" y="500" fill="#e5e5e5" stroke="#7f7f7f"/><rect id="c5r2s4" width="16" height="20" x="362" y="515" fill="#e5e5e5" stroke="#7f7f7f"/><rect id="c5r2s3" width="16" height="20" x="346" y="500" fill="#e5e5e5" stroke="#7f7f7f"/><rect id="c5r2s2" width="16" height="20" x="330" y="515" fill="#e5e5e5" stroke="#7f7f7f"/><rect id="c5r2s1" width="16" height="20" x="314" y="500" fill="#e5e5e5" stroke="#7f7f7f"/><image id="c5r2s7" width="16" height="20" x="410" y="500" preserveAspectRatio="xMidYMid slice"/><image id="c5r2s6" width="16" height="20" x="394" y="515" preserveAspectRatio="xMidYMid slice"/><image id="c5r2s5" width="16" height="20" x="378" y="500" preserveAspectRatio="xMidYMid slice"/><image id="c5r2s4" width="16" height="20" x="362" y="515" preserveAspectRatio="xMidYMid slice"/><image id="c5r2s3" width="16" height="20" x="346" y="500" preserveAspectRatio="xMidYMid slice"/><image id="c5r2s2" width="16" height="20" x="330" y="515" preserveAspectRatio="xMidYMid slice"/><image id="c5r2s1" width="16" height="20" x="314" y="500" preserveAspectRatio="xMidYMid slice"/></g></g><g class="c5r1"><text x="414" y="590" fill="#b2b2b2" font-family="Helvetica, Arial, sans-serif" font-size="10" text-anchor="start" style="white-space:pre">7</text><text x="398" y="605" fill="#b2b2b2" font-family="Helvetica, Arial, sans-serif" font-size="10" text-anchor="start" style="white-space:pre">6</text><text x="382" y="590" fill="#b2b2b2" font-family="Helvetica, Arial, sans-serif" font-size="10" text-anchor="start" style="white-space:pre">5</text><text x="366" y="605" fill="#b2b2b2" font-family="Helvetica, Arial, sans-serif" font-size="10" text-anchor="start" style="white-space:pre">4</text><text x="350" y="590" fill="#b2b2b2" font-family="Helvetica, Arial, sans-serif" font-size="10" text-anchor="start" style="white-space:pre">3</text><text x="334" y="605" fill="#b2b2b2" font-family="Helvetica, Arial, sans-serif" font-size="10" text-anchor="start" style="white-space:pre">2</text><text x="318" y="590" fill="#b2b2b2" font-family="Helvetica, Arial, sans-serif" font-size="10" text-anchor="start" style="white-space:pre">1</text><g class="r1 seats"><rect id="c5r1s7" width="16" height="20" x="410" y="560" fill="#e5e5e5" stroke="#7f7f7f"/><rect id="c5r1s6" width="16" height="20" x="394" y="575" fill="#e5e5e5" stroke="#7f7f7f"/><rect id="c5r1s5" width="16" height="20" x="378" y="560" fill="#e5e5e5" stroke="#7f7f7f"/><rect id="c5r1s4" width="16" height="20" x="362" y="575" fill="#e5e5e5" stroke="#7f7f7f"/><rect id="c5r1s3" width="16" height="20" x="346" y="560" fill="#e5e5e5" stroke="#7f7f7f"/><rect id="c5r1s2" width="16" height="20" x="330" y="575" fill="#e5e5e5" stroke="#7f7f7f"/><rect id="c5r1s1" width="16" height="20" x="314" y="560" fill="#e5e5e5" stroke="#7f7f7f"/><image id="c5r1s7" width="16" height="20" x="410" y="560" preserveAspectRatio="xMidYMid slice"/><image id="c5r1s6" width="16" height="20" x="394" y="575" preserveAspectRatio="xMidYMid slice"/><image id="c5r1s5" width="16" height="20" x="378" y="560" preserveAspectRatio="xMidYMid slice"/><image id="c5r1s4" width="16" height="20" x="362" y="575" preserveAspectRatio="xMidYMid slice"/><image id="c5r1s3" width="16" height="20" x="346" y="560" preserveAspectRatio="xMidYMid slice"/><image id="c5r1s2" width="16" height="20" x="330" y="575" preserveAspectRatio="xMidYMid slice"/><image id="c5r1s1" width="16" height="20" x="314" y="560" preserveAspectRatio="xMidYMid slice"/></g></g><text x="250" y="106" fill="#ccc" font-family="Helvetica, Arial, sans-serif" font-size="20" font-weight="bold" style="white-space:pre">r9</text><text x="250" y="166" fill="#ccc" font-family="Helvetica, Arial, sans-serif" font-size="20" font-weight="bold" style="white-space:pre">r8</text><text x="250" y="226" fill="#ccc" font-family="Helvetica, Arial, sans-serif" font-size="20" font-weight="bold" style="white-space:pre">r7</text><text x="250" y="286" fill="#ccc" font-family="Helvetica, Arial, sans-serif" font-size="20" font-weight="bold" style="white-space:pre">r6</text><text x="250" y="346" fill="#ccc" font-family="Helvetica, Arial, sans-serif" font-size="20" font-weight="bold" style="white-space:pre">r5</text><text x="250" y="406" fill="#ccc" font-family="Helvetica, Arial, sans-serif" font-size="20" font-weight="bold" style="white-space:pre">r4</text><text x="250" y="466" fill="#ccc" font-family="Helvetica, Arial, sans-serif" font-size="20" font-weight="bold" style="white-space:pre">r3</text><text x="250" y="526" fill="#ccc" font-family="Helvetica, Arial, sans-serif" font-size="20" font-weight="bold" style="white-space:pre">r2</text><text x="250" y="586" fill="#ccc" font-family="Helvetica, Arial, sans-serif" font-size="20" font-weight="bold" style="white-space:pre">r1</text><text x="100" y="100" fill="#ccc" font-family="Helvetica, Arial, sans-serif" font-size="40" font-weight="bold" style="white-space:pre">c5</text></svg>